<svg xmlns="http://www.w3.org/2000/svg" viewBox="0 0 64 64">
  <defs>
    <linearGradient id="grad" x1="0%" y1="0%" x2="100%" y2="100%">
      <stop offset="0%" style="stop-color:#0a2351;stop-opacity:1" />
      <stop offset="100%" style="stop-color:#1e3a7b;stop-opacity:1" />
    </linearGradient>
  </defs>
  <circle cx="32" cy="32" r="30" fill="url(#grad)" />
  <path d="M42.5 33.3c.3-2.1-1.3-3.2-3.5-4l.7-2.9-1.8-.4-.7 2.8c-.5-.1-.9-.2-1.4-.3l.7-2.8-1.8-.4-.7 2.9c-.4-.1-.8-.2-1.2-.3l-2.5-.6-.5 1.9s1.3.3 1.3.3c.7.2.9.7.8 1.1l-.8 3.3c.1 0 .1 0 .2.1-.1 0-.1 0-.2-.1l-1.1 4.5c-.1.2-.3.6-.8.4 0 .1-1.3-.3-1.3-.3l-.9 2 2.4.6c.4.1.9.2 1.3.3l-.7 3 1.8.4.7-2.9c.5.1.9.2 1.4.3l-.7 2.9 1.8.4.7-3c3 .6 5.3.3 6.3-2.4.8-2.2 0-3.4-1.6-4.2 1.1-.3 2-1 2.2-2.5zm-4 5.4c-.6 2.2-4.4 1-5.6.7l1-4c1.2.3 5.2.9 4.6 3.3zm.6-5.6c-.5 2-3.7.9-4.7.7l.9-3.6c1 .2 4.3.7 3.8 2.9z" fill="white"/>
</svg>