<svg xmlns="http://www.w3.org/2000/svg" viewBox="0 0 192 192">
  <defs>
    <linearGradient id="grad" x1="0%" y1="0%" x2="100%" y2="100%">
      <stop offset="0%" style="stop-color:#0a2351;stop-opacity:1" />
      <stop offset="100%" style="stop-color:#1e3a7b;stop-opacity:1" />
    </linearGradient>
  </defs>
  <circle cx="96" cy="96" r="90" fill="url(#grad)" />
  <path d="M127.5 99.9c.9-6.3-3.9-9.6-10.5-12l2.1-8.7-5.4-1.2-2.1 8.4c-1.5-.3-2.7-.6-4.2-.9l2.1-8.4-5.4-1.2-2.1 8.7c-1.2-.3-2.4-.6-3.6-.9l-7.5-1.8-1.5 5.7s3.9.9 3.9.9c2.1.6 2.7 2.1 2.4 3.3l-2.4 9.9c.3 0 .3 0 .6.3-.3 0-.3 0-.6-.3l-3.3 13.5c-.3.6-.9 1.8-2.4 1.2 0 .3-3.9-.9-3.9-.9l-2.7 6 7.2 1.8c1.2.3 2.7.6 3.9.9l-2.1 9 5.4 1.2 2.1-8.7c1.5.3 2.7.6 4.2.9l-2.1 8.7 5.4 1.2 2.1-9c9 1.8 15.9.9 18.9-7.2 2.4-6.6 0-10.2-4.8-12.6 3.3-.9 6-3 6.6-7.5zm-12 16.2c-1.8 6.6-13.2 3-16.8 2.1l3-12c3.6.9 15.6 2.7 13.8 9.9zm1.8-16.8c-1.5 6-10.5 2.7-14.1 2.1l2.7-10.8c3 .6 12.9 2.1 11.4 8.7z" fill="white"/>
</svg>