<svg xmlns="http://www.w3.org/2000/svg" viewBox="0 0 512 512">
  <defs>
    <linearGradient id="grad" x1="0%" y1="0%" x2="100%" y2="100%">
      <stop offset="0%" style="stop-color:#0a2351;stop-opacity:1" />
      <stop offset="100%" style="stop-color:#1e3a7b;stop-opacity:1" />
    </linearGradient>
  </defs>
  <circle cx="256" cy="256" r="240" fill="url(#grad)" />
  <path d="M340 266.4c2.4-16.8-10.4-25.6-28-32l5.6-23.2-14.4-3.2-5.6 22.4c-4-.8-7.2-1.6-11.2-2.4l5.6-22.4-14.4-3.2-5.6 23.2c-3.2-.8-6.4-1.6-9.6-2.4l-20-4.8-4 15.2s10.4 2.4 10.4 2.4c5.6 1.6 7.2 5.6 6.4 8.8l-6.4 26.4c.8 0 .8 0 1.6.8-.8 0-.8 0-1.6-.8l-8.8 36c-.8 1.6-2.4 4.8-6.4 3.2 0 .8-10.4-2.4-10.4-2.4l-7.2 16 19.2 4.8c3.2.8 7.2 1.6 10.4 2.4l-5.6 24 14.4 3.2 5.6-23.2c4 .8 7.2 1.6 11.2 2.4l-5.6 23.2 14.4 3.2 5.6-24c24 4.8 42.4 2.4 50.4-19.2 6.4-17.6 0-27.2-12.8-33.6 8.8-2.4 16-8 17.6-20zm-32 43.2c-4.8 17.6-35.2 8-46.4 5.6l8-32c11.2 2.4 41.6 7.2 36.8 26.4zm4.8-44.8c-4 16-28 7.2-37.6 5.6l7.2-28.8c8 1.6 34.4 5.6 30.4 23.2z" fill="white"/>
</svg>